<svg xmlns="http://www.w3.org/2000/svg" fill="#FFFFFF" data-name="Layer 1" viewBox="0 0 100 150" x="0px" y="0px">
  <title>51</title>
  <path d="M6.1709,93.82813a3.99943,3.99943,0,0,1,0-5.65625l82-82a3.99992,3.99992,0,0,1,5.65723,5.65625l-82,82a3.99974,3.99974,0,0,1-5.65723,0ZM94.99969,74.99469A20.00531,20.00531,0,1,1,74.99438,54.98932,20.00533,20.00533,0,0,1,94.99969,74.99469Zm-8-.00006A12.00537,12.00537,0,1,0,74.99481,87,12.01906,12.01906,0,0,0,86.99969,74.99463ZM45.01038,25.00531A20.00535,20.00535,0,1,1,25.00507,5,20.00533,20.00533,0,0,1,45.01038,25.00531Zm-7.99994.00006A12.00538,12.00538,0,1,0,25.00458,37.01074,12.01927,12.01927,0,0,0,37.01044,25.00537Z"/>
</svg>